<svg width="213" height="40" viewBox="0 0 213 40" fill="none" xmlns="http://www.w3.org/2000/svg">
<path d="M191.7 0H21.3C9.53633 0 0 8.9543 0 20C0 31.0457 9.53633 40 21.3 40H191.7C203.464 40 213 31.0457 213 20C213 8.9543 203.464 0 191.7 0Z" fill="white"/>
<path d="M63.3274 17.7109H59.2834C59.2095 17.1877 59.0587 16.723 58.831 16.3168C58.6032 15.9044 58.3108 15.5535 57.9538 15.2642C57.5968 14.9749 57.1844 14.7533 56.7166 14.5994C56.255 14.4455 55.7533 14.3686 55.2116 14.3686C54.233 14.3686 53.3804 14.6117 52.6541 15.098C51.9278 15.5781 51.3646 16.2798 50.9645 17.2031C50.5644 18.1203 50.3643 19.2344 50.3643 20.5455C50.3643 21.8935 50.5644 23.026 50.9645 23.9432C51.3707 24.8603 51.937 25.5528 52.6634 26.0206C53.3897 26.4884 54.2299 26.7223 55.1839 26.7223C55.7195 26.7223 56.215 26.6515 56.6705 26.5099C57.1321 26.3684 57.5414 26.1622 57.8984 25.8913C58.2554 25.6143 58.5509 25.2789 58.7848 24.8849C59.0249 24.491 59.1911 24.0417 59.2834 23.5369L63.3274 23.5554C63.2228 24.4233 62.9612 25.2604 62.5426 26.0668C62.1302 26.867 61.5732 27.584 60.8714 28.218C60.1759 28.8459 59.3449 29.3445 58.3786 29.7138C57.4183 30.0769 56.3319 30.2585 55.1193 30.2585C53.4328 30.2585 51.9247 29.8769 50.5952 29.1136C49.2718 28.3504 48.2254 27.2455 47.456 25.799C46.6927 24.3525 46.3111 22.6013 46.3111 20.5455C46.3111 18.4834 46.6989 16.7292 47.4744 15.2827C48.25 13.8362 49.3026 12.7344 50.6321 11.9773C51.9616 11.214 53.4574 10.8324 55.1193 10.8324C56.215 10.8324 57.2306 10.9863 58.1662 11.294C59.108 11.6018 59.942 12.0511 60.6683 12.642C61.3946 13.2268 61.9856 13.9439 62.4411 14.7933C62.9027 15.6428 63.1982 16.6153 63.3274 17.7109ZM72.5281 30.277C71.0939 30.277 69.8536 29.9723 68.8072 29.3629C67.7669 28.7474 66.9637 27.8918 66.3974 26.7962C65.8311 25.6944 65.5479 24.4171 65.5479 22.9645C65.5479 21.4995 65.8311 20.2192 66.3974 19.1236C66.9637 18.0218 67.7669 17.1662 68.8072 16.5568C69.8536 15.9413 71.0939 15.6335 72.5281 15.6335C73.9622 15.6335 75.1995 15.9413 76.2397 16.5568C77.2861 17.1662 78.0924 18.0218 78.6587 19.1236C79.225 20.2192 79.5082 21.4995 79.5082 22.9645C79.5082 24.4171 79.225 25.6944 78.6587 26.7962C78.0924 27.8918 77.2861 28.7474 76.2397 29.3629C75.1995 29.9723 73.9622 30.277 72.5281 30.277ZM72.5465 27.2301C73.199 27.2301 73.7437 27.0455 74.1808 26.6761C74.6178 26.3007 74.9471 25.7898 75.1687 25.1435C75.3964 24.4972 75.5103 23.7616 75.5103 22.9368C75.5103 22.112 75.3964 21.3764 75.1687 20.7301C74.9471 20.0838 74.6178 19.5729 74.1808 19.1974C73.7437 18.822 73.199 18.6342 72.5465 18.6342C71.8879 18.6342 71.3339 18.822 70.8846 19.1974C70.4414 19.5729 70.1059 20.0838 69.8782 20.7301C69.6566 21.3764 69.5458 22.112 69.5458 22.9368C69.5458 23.7616 69.6566 24.4972 69.8782 25.1435C70.1059 25.7898 70.4414 26.3007 70.8846 26.6761C71.3339 27.0455 71.8879 27.2301 72.5465 27.2301ZM87.2915 30.2308C86.2144 30.2308 85.2388 29.9538 84.3647 29.3999C83.4968 28.8397 82.8074 28.018 82.2965 26.9347C81.7918 25.8452 81.5394 24.5095 81.5394 22.9276C81.5394 21.3026 81.801 19.9515 82.3242 18.8743C82.8474 17.791 83.543 16.9815 84.4109 16.446C85.2849 15.9044 86.2421 15.6335 87.2823 15.6335C88.0763 15.6335 88.738 15.7689 89.2674 16.0398C89.8029 16.3045 90.2338 16.6368 90.56 17.0369C90.8924 17.4309 91.1448 17.8187 91.3171 18.2003H91.4371V11.0909H95.3612V30H91.4833V27.7287H91.3171C91.1325 28.1226 90.8709 28.5135 90.5323 28.9013C90.1999 29.2829 89.766 29.5999 89.2305 29.8523C88.7011 30.1046 88.0548 30.2308 87.2915 30.2308ZM88.538 27.1009C89.172 27.1009 89.7075 26.9285 90.1445 26.5838C90.5877 26.233 90.9263 25.7436 91.1602 25.1158C91.4002 24.4879 91.5202 23.7524 91.5202 22.9091C91.5202 22.0658 91.4033 21.3333 91.1694 20.7116C90.9355 20.09 90.5969 19.6098 90.1538 19.2713C89.7106 18.9328 89.172 18.7635 88.538 18.7635C87.8917 18.7635 87.3469 18.9389 86.9038 19.2898C86.4606 19.6406 86.1251 20.1269 85.8974 20.7486C85.6696 21.3703 85.5558 22.0904 85.5558 22.9091C85.5558 23.7339 85.6696 24.4633 85.8974 25.0973C86.1313 25.7251 86.4667 26.2176 86.9038 26.5746C87.3469 26.9254 87.8917 27.1009 88.538 27.1009ZM105.058 30.277C103.599 30.277 102.344 29.9815 101.291 29.3906C100.245 28.7936 99.4383 27.9503 98.872 26.8608C98.3057 25.7652 98.0225 24.4695 98.0225 22.9737C98.0225 21.5149 98.3057 20.2346 98.872 19.1328C99.4383 18.031 100.235 17.1723 101.263 16.5568C102.297 15.9413 103.51 15.6335 104.901 15.6335C105.837 15.6335 106.708 15.7843 107.514 16.0859C108.327 16.3814 109.034 16.8277 109.638 17.4247C110.247 18.0218 110.721 18.7727 111.059 19.6776C111.398 20.5762 111.567 21.6288 111.567 22.8352V23.9155H99.5922V21.478H107.865C107.865 20.9117 107.742 20.41 107.496 19.973C107.249 19.536 106.908 19.1944 106.471 18.9482C106.04 18.6958 105.538 18.5696 104.966 18.5696C104.369 18.5696 103.839 18.7081 103.378 18.9851C102.922 19.2559 102.565 19.6222 102.307 20.0838C102.048 20.5393 101.916 21.0471 101.91 21.6072V23.9247C101.91 24.6264 102.039 25.2327 102.297 25.7436C102.562 26.2545 102.934 26.6484 103.415 26.9254C103.895 27.2024 104.464 27.3409 105.123 27.3409C105.56 27.3409 105.96 27.2794 106.323 27.1562C106.686 27.0331 106.997 26.8485 107.256 26.6023C107.514 26.3561 107.711 26.0545 107.846 25.6974L111.484 25.9375C111.3 26.8116 110.921 27.5748 110.349 28.2273C109.782 28.8736 109.05 29.3783 108.151 29.7415C107.259 30.0985 106.228 30.277 105.058 30.277Z" fill="black"/>
<path d="M114.208 30V11.0909H126.728V14.3871H118.206V18.8928H125.897V22.1889H118.206V30H114.208ZM134.71 30.277C133.276 30.277 132.035 29.9723 130.989 29.3629C129.949 28.7474 129.145 27.8918 128.579 26.7962C128.013 25.6944 127.73 24.4171 127.73 22.9645C127.73 21.4995 128.013 20.2192 128.579 19.1236C129.145 18.0218 129.949 17.1662 130.989 16.5568C132.035 15.9413 133.276 15.6335 134.71 15.6335C136.144 15.6335 137.381 15.9413 138.421 16.5568C139.468 17.1662 140.274 18.0218 140.84 19.1236C141.407 20.2192 141.69 21.4995 141.69 22.9645C141.69 24.4171 141.407 25.6944 140.84 26.7962C140.274 27.8918 139.468 28.7474 138.421 29.3629C137.381 29.9723 136.144 30.277 134.71 30.277ZM134.728 27.2301C135.381 27.2301 135.925 27.0455 136.362 26.6761C136.799 26.3007 137.129 25.7898 137.35 25.1435C137.578 24.4972 137.692 23.7616 137.692 22.9368C137.692 22.112 137.578 21.3764 137.35 20.7301C137.129 20.0838 136.799 19.5729 136.362 19.1974C135.925 18.822 135.381 18.6342 134.728 18.6342C134.07 18.6342 133.516 18.822 133.066 19.1974C132.623 19.5729 132.288 20.0838 132.06 20.7301C131.838 21.3764 131.727 22.112 131.727 22.9368C131.727 23.7616 131.838 24.4972 132.06 25.1435C132.288 25.7898 132.623 26.3007 133.066 26.6761C133.516 27.0455 134.07 27.2301 134.728 27.2301ZM144.247 30V15.8182H148.061V18.2926H148.208C148.467 17.4124 148.901 16.7476 149.51 16.2983C150.119 15.8428 150.821 15.6151 151.615 15.6151C151.812 15.6151 152.025 15.6274 152.252 15.652C152.48 15.6766 152.68 15.7105 152.852 15.7536V19.2436C152.668 19.1882 152.412 19.139 152.086 19.0959C151.76 19.0528 151.461 19.0312 151.191 19.0312C150.612 19.0312 150.095 19.1574 149.639 19.4098C149.19 19.656 148.833 20.0007 148.568 20.4439C148.31 20.8871 148.181 21.398 148.181 21.9766V30H144.247ZM160.634 30.277C159.181 30.277 157.931 29.9692 156.885 29.3537C155.845 28.732 155.045 27.8703 154.484 26.7685C153.93 25.6667 153.653 24.3987 153.653 22.9645C153.653 21.5118 153.933 20.2377 154.494 19.142C155.06 18.0402 155.863 17.1816 156.903 16.5661C157.944 15.9444 159.181 15.6335 160.615 15.6335C161.852 15.6335 162.936 15.8582 163.865 16.3075C164.795 16.7569 165.53 17.3878 166.072 18.2003C166.613 19.0128 166.912 19.9669 166.967 21.0625H163.256C163.151 20.3546 162.874 19.7853 162.425 19.3544C161.982 18.9174 161.4 18.6989 160.68 18.6989C160.07 18.6989 159.538 18.8651 159.082 19.1974C158.633 19.5237 158.282 20.0007 158.03 20.6286C157.777 21.2564 157.651 22.0166 157.651 22.9091C157.651 23.8139 157.774 24.5833 158.021 25.2173C158.273 25.8513 158.627 26.3345 159.082 26.6669C159.538 26.9993 160.07 27.1655 160.68 27.1655C161.129 27.1655 161.532 27.0732 161.889 26.8885C162.252 26.7038 162.551 26.4361 162.785 26.0852C163.025 25.7282 163.182 25.3004 163.256 24.8018H166.967C166.906 25.8852 166.61 26.8393 166.081 27.6641C165.558 28.4827 164.835 29.1229 163.911 29.5845C162.988 30.0462 161.895 30.277 160.634 30.277ZM175.949 30.277C174.49 30.277 173.234 29.9815 172.182 29.3906C171.135 28.7936 170.329 27.9503 169.763 26.8608C169.196 25.7652 168.913 24.4695 168.913 22.9737C168.913 21.5149 169.196 20.2346 169.763 19.1328C170.329 18.031 171.126 17.1723 172.154 16.5568C173.188 15.9413 174.401 15.6335 175.792 15.6335C176.727 15.6335 177.598 15.7843 178.405 16.0859C179.217 16.3814 179.925 16.8277 180.528 17.4247C181.138 18.0218 181.612 18.7727 181.95 19.6776C182.289 20.5762 182.458 21.6288 182.458 22.8352V23.9155H170.483V21.478H178.756C178.756 20.9117 178.632 20.41 178.386 19.973C178.14 19.536 177.798 19.1944 177.361 18.9482C176.93 18.6958 176.429 18.5696 175.856 18.5696C175.259 18.5696 174.73 18.7081 174.268 18.9851C173.813 19.2559 173.456 19.6222 173.197 20.0838C172.939 20.5393 172.806 21.0471 172.8 21.6072V23.9247C172.8 24.6264 172.93 25.2327 173.188 25.7436C173.453 26.2545 173.825 26.6484 174.305 26.9254C174.785 27.2024 175.355 27.3409 176.013 27.3409C176.45 27.3409 176.85 27.2794 177.214 27.1562C177.577 27.0331 177.888 26.8485 178.146 26.6023C178.405 26.3561 178.602 26.0545 178.737 25.6974L182.375 25.9375C182.19 26.8116 181.812 27.5748 181.239 28.2273C180.673 28.8736 179.94 29.3783 179.042 29.7415C178.149 30.0985 177.118 30.277 175.949 30.277ZM196.824 19.8622L193.224 20.0838C193.162 19.776 193.03 19.4991 192.827 19.2528C192.623 19.0005 192.356 18.8004 192.023 18.6527C191.697 18.4988 191.306 18.4219 190.851 18.4219C190.241 18.4219 189.727 18.5511 189.309 18.8097C188.89 19.062 188.681 19.4006 188.681 19.8253C188.681 20.1638 188.816 20.45 189.087 20.6839C189.358 20.9179 189.823 21.1056 190.481 21.2472L193.048 21.7642C194.427 22.0473 195.455 22.5028 196.132 23.1307C196.809 23.7585 197.148 24.5833 197.148 25.6051C197.148 26.5346 196.874 27.3501 196.326 28.0518C195.784 28.7536 195.039 29.3014 194.091 29.6953C193.15 30.0831 192.063 30.277 190.832 30.277C188.955 30.277 187.459 29.8861 186.345 29.1044C185.237 28.3165 184.588 27.2455 184.397 25.8913L188.265 25.6882C188.382 26.2607 188.666 26.6977 189.115 26.9993C189.564 27.2947 190.14 27.4425 190.841 27.4425C191.531 27.4425 192.085 27.3101 192.503 27.0455C192.928 26.7746 193.144 26.4268 193.15 26.0021C193.144 25.6451 192.993 25.3527 192.697 25.125C192.402 24.8911 191.946 24.7126 191.331 24.5895L188.875 24.1001C187.49 23.8232 186.459 23.343 185.782 22.6598C185.111 21.9766 184.775 21.1056 184.775 20.0469C184.775 19.1359 185.022 18.3511 185.514 17.6925C186.013 17.0339 186.711 16.526 187.61 16.169C188.515 15.812 189.573 15.6335 190.786 15.6335C192.577 15.6335 193.987 16.0121 195.015 16.7692C196.049 17.5263 196.652 18.5573 196.824 19.8622Z" fill="#005FAC"/>
<path d="M39 27.5V20C39 19.6022 38.8354 19.2206 38.5424 18.9393C38.2493 18.658 37.8519 18.5 37.4375 18.5H34.3125C33.8981 18.5 33.5007 18.658 33.2076 18.9393C32.9146 19.2206 32.75 19.6022 32.75 20V27.5C32.75 27.8978 32.9146 28.2794 33.2076 28.5607C33.5007 28.842 33.8981 29 34.3125 29H37.4375C37.8519 29 38.2493 28.842 38.5424 28.5607C38.8354 28.2794 39 27.8978 39 27.5Z" fill="#F44336"/>
<path d="M28.0625 29C28.4769 29 28.8743 28.842 29.1674 28.5607C29.4604 28.2794 29.625 27.8978 29.625 27.5V12.5C29.625 12.1022 29.4604 11.7206 29.1674 11.4393C28.8743 11.158 28.4769 11 28.0625 11H24.9375C24.076 11 23.375 11.672 23.375 12.5V27.5C23.375 28.328 24.076 29 24.9375 29H28.0625Z" fill="#2196F3"/>
<path d="M14 27.5C14 28.328 14.701 29 15.5625 29H18.6875C19.1019 29 19.4993 28.842 19.7924 28.5607C20.0854 28.2794 20.25 27.8978 20.25 27.5V17C20.25 16.6022 20.0854 16.2206 19.7924 15.9393C19.4993 15.658 19.1019 15.5 18.6875 15.5H15.5625C14.701 15.5 14 16.172 14 17V27.5Z" fill="#FFC107"/>
</svg>
